<svg width="214" height="58" viewBox="0 0 214 58" fill="none" xmlns="http://www.w3.org/2000/svg">
<path d="M39.874 40.828C47.5221 40.828 52.2106 36.7538 52.2106 30.528C52.2106 24.9559 47.8298 21.2659 41.8722 21.2659C41.0653 21.2659 40.3733 21.3425 39.759 21.5353L50.8661 12.2732V10.5049H28.767V13.0419H46.6768L33.8398 23.4952L34.8012 24.9559C36.0691 24.2255 38.2984 23.4569 40.7959 23.4569C45.8699 23.4569 49.482 26.1088 49.482 30.5663C49.482 35.3326 46.0231 38.3294 39.874 38.3294C34.4552 38.3294 31.1112 36.2928 27.9217 33.3332L26.23 35.2165C29.8816 38.9447 34.4168 40.828 39.874 40.828Z" fill="white"/>
<path d="M14.5151 36.5333C15.0077 39.307 15.8529 42.1212 17.4026 44.4395C19.3287 47.3203 22.3436 49.4324 27.12 49.7412C27.5505 49.7682 34.6363 49.7299 34.6363 49.7299C39.1242 49.6961 37.49 49.7164 41.3253 49.7164" stroke="white" stroke-width="2.5922" stroke-miterlimit="1.5" stroke-linecap="round" stroke-linejoin="round"/>
<path d="M132.889 36.9006C132.879 38.9744 132.889 41.632 132.889 42.7568C132.889 50.0916 125.612 49.5157 118.976 49.7456C117.879 49.7839 71.6509 49.7478 65.3733 49.7219" stroke="white" stroke-width="2.5922" stroke-miterlimit="1.5" stroke-linecap="round" stroke-linejoin="round"/>
<path d="M36.4331 49.7153H45.4562L47.2122 46.5066L50.8559 53.6442L54.2494 44.4396L57.8413 53.6543L61.316 46.5043L63.0381 49.7141H68.0467" stroke="white" stroke-width="2.5922" stroke-miterlimit="2" stroke-linecap="round" stroke-linejoin="round"/>
<path fill-rule="evenodd" clip-rule="evenodd" d="M130.273 40.3874C127.661 39.4869 125.9 37.2418 125.9 34.4557C125.9 30.8165 128.905 28.0992 132.889 28.0992C136.873 28.0992 139.877 30.8165 139.877 34.4557C139.877 37.244 138.114 39.4902 135.499 40.3896V37.8166C136.642 37.093 137.363 35.8848 137.363 34.4557C137.363 32.1205 135.434 30.3724 132.889 30.3724C130.343 30.3724 128.43 32.1205 128.43 34.4557C128.43 35.8803 129.141 37.0862 130.273 37.8098V40.3874ZM134.183 40.7142C133.765 40.7796 133.333 40.8134 132.889 40.8134C132.443 40.8134 132.009 40.7784 131.589 40.7131V38.379C131.997 38.4838 132.432 38.5401 132.889 38.5401C133.342 38.5401 133.776 38.4849 134.183 38.3801V40.7142ZM63.8135 23.218C61.6315 23.218 59.5126 22.4549 57.7421 21.0247L59.0697 19.2293C60.3512 20.3733 62.2638 21.0574 63.8924 21.0574C65.6629 21.0574 66.6592 20.1986 66.6592 19.1662C66.6592 18.4821 66.2163 18.2127 64.9518 17.9738L61.9155 17.4497C59.56 17.0361 58.3586 15.9079 58.3586 14.1126C58.3586 11.8878 60.3354 10.5049 63.6072 10.5049C65.6156 10.5049 67.3231 11.0447 68.8096 12.0467L67.5598 13.8894C66.3425 13.0633 64.9675 12.6508 63.5125 12.6508C61.7419 12.6508 60.8414 13.1433 60.8414 14.0325C60.8414 14.7482 61.3464 15.1291 63.1023 15.4154L65.3789 15.8121C67.9869 16.2573 69.1883 17.1161 69.1883 18.9273C69.1883 21.4226 67.2126 23.218 63.8135 23.218ZM69.9322 12.8886V10.6796H81.2838V12.8886H76.8567V23.0433H74.3908V12.8886H69.9322ZM83.0859 23.0433V10.6796H90.5165C92.8721 10.6796 94.6438 12.0467 94.6438 14.4462C94.6438 16.4489 93.5528 17.7202 92.0978 18.2443L94.6595 23.0433H91.9558L89.6002 18.4979H85.5519V23.0433H83.0859ZM85.5519 16.3216H90.2325C91.576 16.3216 92.1451 15.7332 92.1451 14.4619C92.1451 13.4611 91.576 12.857 90.2325 12.857H85.5519V16.3216ZM97.1413 23.0433V10.6796H99.6073V23.0433H97.1413ZM102.454 23.0433V10.6796H109.379C112.003 10.6796 113.79 11.9351 113.79 14.6682C113.79 17.4182 112.003 18.6568 109.379 18.6568H104.92V23.0433H102.454ZM104.92 16.4963H109.253C110.501 16.4963 111.291 15.8922 111.291 14.6682C111.291 13.4611 110.501 12.857 109.253 12.857H104.92V16.4963ZM116.209 23.0433V10.6796H126.691V12.8728H118.675V15.5586H124.319V17.6718H118.675V20.85H126.865V23.0433H116.209ZM134.691 23.218C132.509 23.218 130.39 22.4549 128.62 21.0247L129.947 19.2293C131.229 20.3733 133.141 21.0574 134.77 21.0574C136.541 21.0574 137.537 20.1986 137.537 19.1662C137.537 18.4821 137.094 18.2127 135.829 17.9738L132.793 17.4497C130.438 17.0361 129.236 15.9079 129.236 14.1126C129.236 11.8878 131.213 10.5049 134.485 10.5049C136.493 10.5049 138.201 11.0447 139.687 12.0467L138.437 13.8894C137.22 13.0633 135.845 12.6508 134.39 12.6508C132.62 12.6508 131.719 13.1433 131.719 14.0325C131.719 14.7482 132.224 15.1291 133.98 15.4154L136.257 15.8121C138.865 16.2573 140.066 17.1161 140.066 18.9273C140.066 21.4226 138.09 23.218 134.691 23.218ZM57.2676 30.4829V28.2739H68.6192V30.4829H64.1933V40.6376H61.7262V30.4829H57.2676ZM70.4224 40.6376V28.2739H80.904V30.4671H72.8884V33.1529H78.5327V35.2661H72.8884V38.4455H81.0787V40.6376H70.4224ZM89.3624 40.8292C85.3626 40.8292 82.4063 38.2696 82.4063 34.4557C82.4063 30.6576 85.3626 28.0834 89.3624 28.0834C91.6706 28.0834 93.7579 28.958 95.0225 30.5629L93.315 32.0405C92.1136 30.9123 90.9279 30.3555 89.3624 30.3555C86.786 30.3555 84.9354 31.9773 84.9354 34.4557C84.9354 36.9352 86.786 38.5559 89.3624 38.5559C90.9279 38.5559 92.1136 38.0003 93.315 36.8721L95.0225 38.3654C93.7579 39.9546 91.6706 40.8292 89.3624 40.8292ZM97.2044 40.6376V28.2739H99.6715V33.1055H106.486V28.2739H108.952V40.6376H106.486V35.3145H99.6715V40.6376H97.2044ZM111.797 40.6376V28.2739H113.916L121.142 36.3153V28.2739H123.576V40.6376H121.9L114.232 32.1363V40.6376H111.797ZM142.201 40.6376V28.2739H144.668V38.4286H152.24V40.6376H142.201ZM159.513 40.8134C155.529 40.8134 152.525 38.0949 152.525 34.4557C152.525 30.8165 155.529 28.0992 159.513 28.0992C163.497 28.0992 166.501 30.8165 166.501 34.4557C166.501 38.0949 163.497 40.8134 159.513 40.8134ZM159.513 38.5401C162.058 38.5401 163.987 36.7921 163.987 34.4557C163.987 32.1205 162.058 30.3724 159.513 30.3724C156.967 30.3724 155.055 32.1205 155.055 34.4557C155.055 36.7921 156.967 38.5401 159.513 38.5401ZM174.849 40.8134C171.15 40.8134 168.304 38.1276 168.304 34.4557C168.304 30.8165 171.197 28.0834 175.386 28.0834C177.821 28.0834 179.75 29.1485 180.968 30.5471L179.134 32.072C178.28 31.087 176.983 30.3555 175.355 30.3555C172.683 30.3555 170.833 31.9616 170.833 34.4884C170.833 36.9983 172.763 38.6202 175.292 38.6202C177.489 38.6202 178.77 37.4751 179.023 35.807H175.166V33.8201H181.284V40.6376H179.102V39.2716C178.185 40.2251 176.715 40.8134 174.849 40.8134ZM183.971 40.6376V28.2739H186.438V40.6376H183.971ZM189.284 40.6376V28.2739H199.767V30.4671H191.75V33.1529H197.394V35.2661H191.75V38.4455H199.94V40.6376H189.284ZM207.766 40.8134C205.584 40.8134 203.466 40.0504 201.695 38.6202L203.023 36.8236C204.304 37.9687 206.217 38.6517 207.845 38.6517C209.616 38.6517 210.612 37.7929 210.612 36.7605C210.612 36.0775 210.169 35.807 208.905 35.5681L205.868 35.044C203.513 34.6304 202.312 33.5022 202.312 31.7069C202.312 29.4821 204.288 28.0992 207.56 28.0992C209.569 28.0992 211.276 28.6402 212.763 29.641L211.513 31.4848C210.296 30.6576 208.921 30.2451 207.465 30.2451C205.695 30.2451 204.793 30.7376 204.793 31.6268C204.793 32.3425 205.299 32.7235 207.054 33.0097L209.332 33.4076C211.94 33.8528 213.141 34.7104 213.141 36.5216C213.141 39.0169 211.166 40.8134 207.766 40.8134Z" fill="white"/>
<path d="M7.47175 16.9621C9.11004 16.9621 10.4381 15.634 10.4381 13.9957C10.4381 12.3574 9.11004 11.0293 7.47175 11.0293C5.83347 11.0293 4.50537 12.3574 4.50537 13.9957C4.50537 15.634 5.83347 16.9621 7.47175 16.9621Z" fill="white"/>
<path fill-rule="evenodd" clip-rule="evenodd" d="M15.3702 13.827C15.3702 13.4686 15.3781 13.4517 15.6328 13.1981C16.0013 12.8307 16.0644 12.94 16.5863 12.94C18.6679 12.9411 24.7765 12.842 24.8576 18.511C24.8678 19.2492 24.4801 23.5342 23.8557 26.4916C23.2787 29.2202 21.2579 38.0562 12.7408 37.3721C3.66919 36.6429 1.29225 24.3807 0.616026 21.1438C-0.618088 15.2448 7.03793 13.4483 7.17881 13.4596C7.42676 13.4799 7.70289 13.454 7.91477 13.5858C7.92266 13.5903 8.35544 14.1967 8.35432 14.2012C8.31374 14.4458 8.35883 14.7241 8.22809 14.9349C7.95309 15.3756 7.8742 15.2933 7.37942 15.4454C6.05515 15.8523 4.21806 16.7122 3.29839 18.005C2.35731 19.3292 2.72924 20.4044 3.16427 22.0916C4.37472 26.7824 7.26897 35.7762 14.7604 34.7427C20.6154 33.9346 21.9217 25.5787 22.6903 19.2357C22.9969 16.6998 22.182 14.9383 16.85 14.7298C16.3811 14.7117 16.2605 14.7208 16.2538 14.7174C15.679 14.4773 15.6688 14.4931 15.6316 14.4548C15.3781 14.2012 15.3702 14.1843 15.3702 13.827Z" fill="white"/>
<path d="M16.2342 16.4376C17.8725 16.4376 19.2006 15.1096 19.2006 13.4713C19.2006 11.833 17.8725 10.5049 16.2342 10.5049C14.5959 10.5049 13.2678 11.833 13.2678 13.4713C13.2678 15.1096 14.5959 16.4376 16.2342 16.4376Z" fill="white"/>
<path d="M132.89 36.4183C134.075 36.4183 135.035 35.5438 135.035 34.4651C135.035 33.3864 134.075 32.512 132.89 32.512C131.704 32.512 130.744 33.3864 130.744 34.4651C130.744 35.5438 131.704 36.4183 132.89 36.4183Z" stroke="white" stroke-width="2.02868" stroke-miterlimit="1.5" stroke-linecap="round" stroke-linejoin="round"/>
</svg>
