<svg xmlns="http://www.w3.org/2000/svg" viewBox="0 0 1200 630" width="1200" height="630">
  <rect width="1200" height="630" fill="#0A0A0A"/>
  <g opacity="0.035" stroke="#ffffff" stroke-width="1">
    <line x1="0" y1="157" x2="1200" y2="157"/><line x1="0" y1="314" x2="1200" y2="314"/>
    <line x1="0" y1="471" x2="1200" y2="471"/><line x1="300" y1="0" x2="300" y2="630"/>
    <line x1="600" y1="0" x2="600" y2="630"/><line x1="900" y1="0" x2="900" y2="630"/>
  </g>
  <!-- bullseye / target glyph for Digital Strategy -->
  <g opacity="0.045" fill="none" stroke="#ffffff" stroke-width="7">
    <circle cx="880" cy="315" r="155"/>
    <circle cx="880" cy="315" r="105"/>
    <circle cx="880" cy="315" r="55"/>
  </g>
  <circle cx="880" cy="315" r="18" fill="#ffffff" opacity="0.045"/>
  <!-- crosshairs -->
  <g opacity="0.025" stroke="#ffffff" stroke-width="3">
    <line x1="880" y1="120" x2="880" y2="510"/>
    <line x1="685" y1="315" x2="1075" y2="315"/>
  </g>
  <rect x="0" y="0" width="1200" height="5" fill="#FF6B2B"/>
  <rect x="60" y="78" width="3" height="28" fill="#FF6B2B"/>
  <text x="72" y="99" font-family="system-ui,-apple-system,sans-serif" font-size="13" font-weight="700" fill="#FF6B2B" letter-spacing="4">DIGITAL STRATEGY</text>
  <text x="60" y="185" font-family="system-ui,-apple-system,sans-serif" font-size="48" font-weight="800" fill="#F0EEE8">Most Caribbean Businesses</text>
  <text x="60" y="248" font-family="system-ui,-apple-system,sans-serif" font-size="48" font-weight="800" fill="#F0EEE8">Still Run a 2019 Visibility</text>
  <text x="60" y="311" font-family="system-ui,-apple-system,sans-serif" font-size="48" font-weight="800" fill="#F0EEE8">Strategy in a 2026 World</text>
  <line x1="60" y1="585" x2="1140" y2="585" stroke="#1E1E1E" stroke-width="1"/>
  <text x="1140" y="608" font-family="system-ui,-apple-system,sans-serif" font-size="13" fill="#6B7280" text-anchor="end">antoniocumberbatch.com</text>
</svg>
