<svg xmlns="http://www.w3.org/2000/svg" viewBox="0 0 1200 630" width="1200" height="630">
  <rect width="1200" height="630" fill="#0A0A0A"/>
  <!-- subtle grid lines -->
  <g opacity="0.035" stroke="#ffffff" stroke-width="1">
    <line x1="0" y1="157" x2="1200" y2="157"/><line x1="0" y1="314" x2="1200" y2="314"/>
    <line x1="0" y1="471" x2="1200" y2="471"/><line x1="300" y1="0" x2="300" y2="630"/>
    <line x1="600" y1="0" x2="600" y2="630"/><line x1="900" y1="0" x2="900" y2="630"/>
  </g>
  <!-- AI / neural network glyph -->
  <g opacity="0.045" fill="none" stroke="#ffffff">
    <circle cx="870" cy="220" r="32" stroke-width="7"/>
    <circle cx="980" cy="305" r="26" stroke-width="7"/>
    <circle cx="870" cy="390" r="28" stroke-width="7"/>
    <circle cx="760" cy="290" r="22" stroke-width="7"/>
    <circle cx="920" cy="315" r="10" fill="#ffffff" stroke="none"/>
    <line x1="870" y1="220" x2="980" y2="305" stroke-width="5"/>
    <line x1="870" y1="220" x2="760" y2="290" stroke-width="5"/>
    <line x1="870" y1="220" x2="870" y2="390" stroke-width="5"/>
    <line x1="980" y1="305" x2="870" y2="390" stroke-width="5"/>
    <line x1="760" y1="290" x2="870" y2="390" stroke-width="5"/>
    <line x1="980" y1="305" x2="760" y2="290" stroke-width="4"/>
  </g>
  <!-- top accent bar -->
  <rect x="0" y="0" width="1200" height="5" fill="#FF6B2B"/>
  <!-- left accent stripe -->
  <rect x="60" y="78" width="3" height="28" fill="#FF6B2B"/>
  <!-- category -->
  <text x="72" y="99" font-family="system-ui,-apple-system,sans-serif" font-size="13" font-weight="700" fill="#FF6B2B" letter-spacing="4">AI &amp; AUTOMATION</text>
  <!-- title -->
  <text x="60" y="218" font-family="system-ui,-apple-system,sans-serif" font-size="54" font-weight="800" fill="#F0EEE8">Why Building Automations</text>
  <text x="60" y="286" font-family="system-ui,-apple-system,sans-serif" font-size="54" font-weight="800" fill="#F0EEE8">on Spreadsheets Is a Trap</text>
  <!-- bottom divider -->
  <line x1="60" y1="585" x2="1140" y2="585" stroke="#1E1E1E" stroke-width="1"/>
  <!-- domain -->
  <text x="1140" y="608" font-family="system-ui,-apple-system,sans-serif" font-size="13" fill="#6B7280" text-anchor="end">antoniocumberbatch.com</text>
</svg>
