<svg xmlns="http://www.w3.org/2000/svg" viewBox="0 0 1200 630" width="1200" height="630">
  <rect width="1200" height="630" fill="#0A0A0A"/>
  <g opacity="0.035" stroke="#ffffff" stroke-width="1">
    <line x1="0" y1="157" x2="1200" y2="157"/><line x1="0" y1="314" x2="1200" y2="314"/>
    <line x1="0" y1="471" x2="1200" y2="471"/><line x1="300" y1="0" x2="300" y2="630"/>
    <line x1="600" y1="0" x2="600" y2="630"/><line x1="900" y1="0" x2="900" y2="630"/>
  </g>
  <!-- cloud + shield glyph -->
  <g opacity="0.045">
    <ellipse cx="870" cy="265" rx="110" ry="70" fill="#ffffff"/>
    <ellipse cx="805" cy="295" rx="80" ry="55" fill="#ffffff"/>
    <ellipse cx="940" cy="300" rx="72" ry="55" fill="#ffffff"/>
    <rect x="725" y="305" width="290" height="60" rx="8" fill="#ffffff"/>
    <path d="M870 345 L830 365 L830 395 Q870 415 870 415 Q910 395 910 395 L910 365 Z" fill="none" stroke="#FF6B2B" stroke-width="6" opacity="0.6"/>
  </g>
  <rect x="0" y="0" width="1200" height="5" fill="#FF6B2B"/>
  <rect x="60" y="78" width="3" height="28" fill="#FF6B2B"/>
  <text x="72" y="99" font-family="system-ui,-apple-system,sans-serif" font-size="13" font-weight="700" fill="#FF6B2B" letter-spacing="4">CLOUD &amp; AZURE</text>
  <text x="60" y="218" font-family="system-ui,-apple-system,sans-serif" font-size="54" font-weight="800" fill="#F0EEE8">Azure Front Door Dropped</text>
  <text x="60" y="286" font-family="system-ui,-apple-system,sans-serif" font-size="54" font-weight="800" fill="#F0EEE8">Server Load from 95% to 35%</text>
  <line x1="60" y1="585" x2="1140" y2="585" stroke="#1E1E1E" stroke-width="1"/>
  <text x="1140" y="608" font-family="system-ui,-apple-system,sans-serif" font-size="13" fill="#6B7280" text-anchor="end">antoniocumberbatch.com</text>
</svg>
