<svg xmlns="http://www.w3.org/2000/svg" viewBox="0 0 1200 630" width="1200" height="630">
  <rect width="1200" height="630" fill="#0A0A0A"/>
  <g opacity="0.035" stroke="#ffffff" stroke-width="1">
    <line x1="0" y1="157" x2="1200" y2="157"/><line x1="0" y1="314" x2="1200" y2="314"/>
    <line x1="0" y1="471" x2="1200" y2="471"/><line x1="300" y1="0" x2="300" y2="630"/>
    <line x1="600" y1="0" x2="600" y2="630"/><line x1="900" y1="0" x2="900" y2="630"/>
  </g>
  <!-- two-node contrast glyph representing readiness vs adoption split -->
  <g opacity="0.045" fill="none" stroke="#ffffff">
    <circle cx="810" cy="295" r="90" stroke-width="7" stroke-dasharray="20 12"/>
    <circle cx="950" cy="335" r="70" stroke-width="7"/>
    <line x1="810" y1="295" x2="950" y2="335" stroke-width="6"/>
    <circle cx="810" cy="295" r="18" fill="#ffffff" stroke="none"/>
    <circle cx="950" cy="335" r="14" fill="#ffffff" stroke="none"/>
    <line x1="810" y1="295" x2="735" y2="220" stroke-width="5"/>
    <line x1="950" y1="335" x2="1020" y2="260" stroke-width="5"/>
    <circle cx="735" cy="220" r="9" fill="#ffffff" stroke="none"/>
    <circle cx="1020" cy="260" r="9" fill="#ffffff" stroke="none"/>
  </g>
  <rect x="0" y="0" width="1200" height="5" fill="#FF6B2B"/>
  <rect x="60" y="78" width="3" height="28" fill="#FF6B2B"/>
  <text x="72" y="99" font-family="system-ui,-apple-system,sans-serif" font-size="13" font-weight="700" fill="#FF6B2B" letter-spacing="4">AI &amp; AUTOMATION</text>
  <text x="60" y="185" font-family="system-ui,-apple-system,sans-serif" font-size="48" font-weight="800" fill="#F0EEE8">Copilot Readiness vs</text>
  <text x="60" y="248" font-family="system-ui,-apple-system,sans-serif" font-size="48" font-weight="800" fill="#F0EEE8">Copilot Adoption:</text>
  <text x="60" y="311" font-family="system-ui,-apple-system,sans-serif" font-size="48" font-weight="800" fill="#F0EEE8">Why Rollouts Skip What Matters</text>
  <line x1="60" y1="585" x2="1140" y2="585" stroke="#1E1E1E" stroke-width="1"/>
  <text x="1140" y="608" font-family="system-ui,-apple-system,sans-serif" font-size="13" fill="#6B7280" text-anchor="end">antoniocumberbatch.com</text>
</svg>
