<svg xmlns="http://www.w3.org/2000/svg" viewBox="0 0 1200 630" width="1200" height="630">
  <rect width="1200" height="630" fill="#0A0A0A"/>
  <g opacity="0.035" stroke="#ffffff" stroke-width="1">
    <line x1="0" y1="157" x2="1200" y2="157"/><line x1="0" y1="314" x2="1200" y2="314"/>
    <line x1="0" y1="471" x2="1200" y2="471"/><line x1="300" y1="0" x2="300" y2="630"/>
    <line x1="600" y1="0" x2="600" y2="630"/><line x1="900" y1="0" x2="900" y2="630"/>
  </g>
  <!-- notebook / bounded box with content lines -->
  <g opacity="0.05" fill="none" stroke="#ffffff" stroke-width="6">
    <rect x="750" y="185" width="260" height="300" rx="14"/>
    <line x1="780" y1="250" x2="980" y2="250" stroke-width="4"/>
    <line x1="780" y1="290" x2="980" y2="290" stroke-width="4"/>
    <line x1="780" y1="330" x2="940" y2="330" stroke-width="4"/>
    <line x1="780" y1="370" x2="960" y2="370" stroke-width="4"/>
    <line x1="780" y1="410" x2="900" y2="410" stroke-width="4"/>
  </g>
  <!-- small orange dot in the top-left corner of the box (bounded indicator) -->
  <circle cx="770" cy="210" r="8" fill="#FF6B2B" opacity="0.35"/>
  <rect x="0" y="0" width="1200" height="5" fill="#FF6B2B"/>
  <rect x="60" y="78" width="3" height="28" fill="#FF6B2B"/>
  <text x="72" y="99" font-family="system-ui,-apple-system,sans-serif" font-size="13" font-weight="700" fill="#FF6B2B" letter-spacing="4">AI &amp; AUTOMATION</text>
  <text x="60" y="185" font-family="system-ui,-apple-system,sans-serif" font-size="46" font-weight="800" fill="#F0EEE8">If Copilot Keeps Pulling the</text>
  <text x="60" y="246" font-family="system-ui,-apple-system,sans-serif" font-size="46" font-weight="800" fill="#F0EEE8">Wrong Information,</text>
  <text x="60" y="307" font-family="system-ui,-apple-system,sans-serif" font-size="46" font-weight="800" fill="#F0EEE8">You Need a Notebook</text>
  <line x1="60" y1="585" x2="1140" y2="585" stroke="#1E1E1E" stroke-width="1"/>
  <text x="1140" y="608" font-family="system-ui,-apple-system,sans-serif" font-size="13" fill="#6B7280" text-anchor="end">antoniocumberbatch.com</text>
</svg>
