<svg xmlns="http://www.w3.org/2000/svg" viewBox="0 0 1200 630" width="1200" height="630">
  <rect width="1200" height="630" fill="#0A0A0A"/>
  <g opacity="0.035" stroke="#ffffff" stroke-width="1">
    <line x1="0" y1="157" x2="1200" y2="157"/><line x1="0" y1="314" x2="1200" y2="314"/>
    <line x1="0" y1="471" x2="1200" y2="471"/><line x1="300" y1="0" x2="300" y2="630"/>
    <line x1="600" y1="0" x2="600" y2="630"/><line x1="900" y1="0" x2="900" y2="630"/>
  </g>
  <!-- cloud glyph -->
  <g opacity="0.045" fill="#ffffff">
    <ellipse cx="870" cy="285" rx="115" ry="75"/>
    <ellipse cx="800" cy="315" rx="85" ry="60"/>
    <ellipse cx="945" cy="320" rx="75" ry="58"/>
    <rect x="720" y="325" width="300" height="65" rx="8"/>
  </g>
  <rect x="0" y="0" width="1200" height="5" fill="#FF6B2B"/>
  <rect x="60" y="78" width="3" height="28" fill="#FF6B2B"/>
  <text x="72" y="99" font-family="system-ui,-apple-system,sans-serif" font-size="13" font-weight="700" fill="#FF6B2B" letter-spacing="4">CLOUD &amp; AZURE</text>
  <text x="60" y="185" font-family="system-ui,-apple-system,sans-serif" font-size="48" font-weight="800" fill="#F0EEE8">How We Built a Logistics</text>
  <text x="60" y="248" font-family="system-ui,-apple-system,sans-serif" font-size="48" font-weight="800" fill="#F0EEE8">Platform on Azure</text>
  <text x="60" y="311" font-family="system-ui,-apple-system,sans-serif" font-size="48" font-weight="800" fill="#F0EEE8">From WhatsApp to 200+ Users</text>
  <line x1="60" y1="585" x2="1140" y2="585" stroke="#1E1E1E" stroke-width="1"/>
  <text x="1140" y="608" font-family="system-ui,-apple-system,sans-serif" font-size="13" fill="#6B7280" text-anchor="end">antoniocumberbatch.com</text>
</svg>
